<?xml version="1.0" encoding="UTF-8"?>
<svg id="Layer_1" data-name="Layer 1" xmlns="http://www.w3.org/2000/svg" viewBox="0 0 59.62 60.67">
  <defs>
    <style>
      .cls-1 {
        stroke-width: 3px;
      }

      .cls-1, .cls-2 {
        fill: #fff;
        stroke-miterlimit: 10;
      }

      .cls-1, .cls-2, .cls-3 {
        stroke: #84c341;
        stroke-linecap: round;
      }

      .cls-2 {
        stroke-width: 1.77px;
      }

      .cls-4 {
        fill: #84c341;
        stroke-width: 0px;
      }

      .cls-3 {
        fill: none;
        stroke-linejoin: round;
        stroke-width: 1.71px;
      }
    </style>
  </defs>
  <path class="cls-1" d="M6.88,20.73c0,6.17.85,29.29.85,29.29.24,6.78,14.4,7.14,14.4,7.14,20.7.97,27.48-1.21,27.48-1.21,6.05-2.3,3.63-37.77,3.63-37.77,5.69-9.2-3.87-13.31-3.87-13.31C30.39-2.21,13.9,3.78,9.64,5.6c-.62.26-1.22.55-1.78.92-7.96,5.25-.98,14.21-.98,14.21Z"/>
  <g>
    <path class="cls-2" d="M48.11,35.63c.83,1.99,2.8,3.4,5.1,3.4,3.05,0,5.53-2.47,5.53-5.53,0-3.05-2.59-4.68-5.53-5.53-.67-.19-1.89-.2-2.56,0"/>
    <path class="cls-2" d="M44.84,54.7c.17,2.15,1.61,4.1,3.79,4.81,2.9.95,6.02-.63,6.97-3.53.95-2.9-1.01-5.26-3.53-6.97-.58-.39-1.73-.78-2.44-.8"/>
    <path class="cls-2" d="M11.51,35.63c-.83,1.99-2.8,3.4-5.1,3.4-3.05,0-5.53-2.47-5.53-5.53,0-3.05,2.59-4.68,5.53-5.53.67-.19,1.89-.2,2.56,0"/>
    <path class="cls-2" d="M14.77,54.7c-.17,2.15-1.61,4.1-3.79,4.81-2.9.95-6.02-.63-6.97-3.53-.95-2.9,1.01-5.26,3.53-6.97.58-.39,1.73-.78,2.44-.8"/>
  </g>
  <g>
    <circle class="cls-4" cx="19.46" cy="27.68" r="2.68"/>
    <circle class="cls-4" cx="39.63" cy="27.68" r="2.68"/>
    <polyline class="cls-3" points="34.09 35.98 29.38 38.76 25 35.98"/>
  </g>
</svg>