<?xml version="1.0" encoding="UTF-8"?>
<svg id="Layer_1" data-name="Layer 1" xmlns="http://www.w3.org/2000/svg" viewBox="0 0 65.07 90.47">
  <defs>
    <style>
      .cls-1 {
        stroke-width: 1.46px;
      }

      .cls-1, .cls-2, .cls-3, .cls-4, .cls-5 {
        stroke-miterlimit: 10;
      }

      .cls-1, .cls-2, .cls-3, .cls-4, .cls-5, .cls-6 {
        stroke: #84c341;
        stroke-linecap: round;
      }

      .cls-1, .cls-2, .cls-3, .cls-5 {
        fill: #fff;
      }

      .cls-2 {
        stroke-width: 1.52px;
      }

      .cls-3 {
        stroke-width: 1.5px;
      }

      .cls-4 {
        stroke-width: 1.78px;
      }

      .cls-4, .cls-6 {
        fill: none;
      }

      .cls-5 {
        stroke-width: 1.77px;
      }

      .cls-7 {
        fill: #84c341;
        stroke-width: 0px;
      }

      .cls-6 {
        stroke-linejoin: round;
        stroke-width: 1.71px;
      }
    </style>
  </defs>
  <path class="cls-3" d="M19.13,31.27c-2.55-7.28,7.32-7.28,7.32-7.28,7.4.22,7.32,3.24,7.32,3.24.34,1.3,0,4.04,0,4.04"/>
  <path class="cls-5" d="M6.58,66.89c-1.89-35.84,13.29-37.85,13.29-37.85,24.1-4.73,24.55,16.9,24.55,16.9.45,6.98,0,8.56,0,8.56-.67,20.41-1.16,24.82-1.16,24.82-1.71,11.4-28.71,6.55-28.71,6.55-7.6-1.49-7.98-18.98-7.98-18.98Z"/>
  <g>
    <path class="cls-5" d="M39.53,65.43c.83,1.99,2.8,3.4,5.1,3.4,3.05,0,5.53-2.47,5.53-5.53,0-3.05-2.59-4.68-5.53-5.53-.67-.19-1.89-.2-2.56,0"/>
    <path class="cls-5" d="M36.27,84.49c.17,2.15,1.61,4.1,3.79,4.81,2.9.95,6.02-.63,6.97-3.53.95-2.9-1.01-5.26-3.53-6.97-.58-.39-1.73-.78-2.44-.8"/>
    <path class="cls-5" d="M11.51,65.43c-.83,1.99-2.8,3.4-5.1,3.4-3.05,0-5.53-2.47-5.53-5.53,0-3.05,2.59-4.68,5.53-5.53.67-.19,1.89-.2,2.56,0"/>
    <path class="cls-5" d="M14.77,84.49c-.17,2.15-1.61,4.1-3.79,4.81-2.9.95-6.02-.63-6.97-3.53-.95-2.9,1.01-5.26,3.53-6.97.58-.39,1.73-.78,2.44-.8"/>
  </g>
  <g>
    <circle class="cls-7" cx="16.23" cy="47.05" r="2.68"/>
    <circle class="cls-7" cx="36.4" cy="47.05" r="2.68"/>
    <polyline class="cls-6" points="30.86 55.35 26.15 58.13 21.77 55.35"/>
  </g>
  <path class="cls-2" d="M33.65,20.04c-2.58-10.85,22.67-7.08,29.88-.99.86.72,1.14,1.84.12,2.3-22.39,10.14-30.01-1.31-30.01-1.31Z"/>
  <path class="cls-4" d="M26.84,23.57c5.51-9.37,30.85-3.91,30.85-3.91"/>
  <path class="cls-2" d="M30.37,16.58C22.77,8.42,46.59-.77,55.87.97c1.1.21,1.9,1.03,1.24,1.94-14.47,19.86-26.75,13.66-26.75,13.66Z"/>
  <path class="cls-4" d="M26.19,23.01c.17-10.87,24.9-18.63,24.9-18.63"/>
  <circle class="cls-5" cx="23.92" cy="14.56" r="4.98"/>
  <circle class="cls-5" cx="21.21" cy="19.54" r="4.98"/>
  <circle class="cls-1" cx="17.66" cy="12.63" r="4.11"/>
</svg>