<?xml version="1.0" encoding="UTF-8"?>
<svg id="Layer_1" data-name="Layer 1" xmlns="http://www.w3.org/2000/svg" viewBox="0 0 70.72 76.9">
  <defs>
    <style>
      .cls-1 {
        stroke-width: 3.82px;
      }

      .cls-1, .cls-2, .cls-3, .cls-4 {
        stroke: #84c341;
        stroke-linecap: round;
      }

      .cls-1, .cls-3 {
        stroke-linejoin: round;
      }

      .cls-1, .cls-3, .cls-4 {
        fill: none;
      }

      .cls-2 {
        fill: #fff;
        stroke-width: 1.52px;
      }

      .cls-2, .cls-4 {
        stroke-miterlimit: 10;
      }

      .cls-3 {
        stroke-width: 2.45px;
      }

      .cls-4 {
        stroke-width: 1.78px;
      }

      .cls-5 {
        opacity: .5;
      }

      .cls-5, .cls-6 {
        fill: #84c341;
        stroke-width: 0px;
      }
    </style>
  </defs>
  <path class="cls-2" d="M39.3,7.65c-2.58-10.85,22.67-7.08,29.88-.99.86.72,1.14,1.84.12,2.3-22.39,10.14-30.01-1.31-30.01-1.31Z"/>
  <circle class="cls-2" cx="32.49" cy="44.4" r="31.73"/>
  <circle class="cls-6" cx="18.07" cy="44.99" r="3.84"/>
  <circle class="cls-6" cx="46.92" cy="44.99" r="3.84"/>
  <polyline class="cls-3" points="39.3 52.63 32.55 56.61 26.29 52.63"/>
  <circle class="cls-5" cx="19.4" cy="24.86" r="1.33"/>
  <circle class="cls-5" cx="14.99" cy="29.81" r="1.33"/>
  <circle class="cls-5" cx="23.79" cy="21.35" r="1.33"/>
  <circle class="cls-5" cx="26.29" cy="25.33" r="1.33"/>
  <circle class="cls-5" cx="13.66" cy="23.53" r="1.33"/>
  <circle class="cls-5" cx="21.64" cy="29.26" r="1.33"/>
  <circle class="cls-5" cx="18.27" cy="20.03" r="1.33"/>
  <ellipse class="cls-6" cx="32.49" cy="17.11" rx="3.72" ry="2.17"/>
  <line class="cls-1" x1="32.49" y1="16.45" x2="32.49" y2="6.34"/>
  <path class="cls-4" d="M32.49,11.18c5.51-9.37,30.85-3.91,30.85-3.91"/>
</svg>